<svg width="131" height="31" viewBox="0 0 131 31" fill="none" xmlns="http://www.w3.org/2000/svg">
<g filter="url(#filter0_d)">
<path d="M10.0586 10.3125H8.11328V17.0625H4V0H8.11328V6.59766H9.69531L12.9766 0H17.957L13.2695 7.875L18.543 17.0625H13.6797L10.0586 10.3125Z" fill="white"/>
<path d="M26.7578 4.38281H30.7188V17.0625H26.7578V9.67969L23.2773 17.0625H19.3047V4.38281H23.2773V11.7422L26.7578 4.38281Z" fill="white"/>
<path d="M44.125 17.0625H40.1641V12.3633H36.707V17.0625H32.7578V4.38281H36.707V9.32812H40.1641V4.38281H44.125V17.0625Z" fill="white"/>
<path d="M45.7891 10.6055C45.7891 9.33984 46.0352 8.21484 46.5273 7.23047C47.0195 6.23828 47.7266 5.47656 48.6484 4.94531C49.5703 4.41406 50.6523 4.14844 51.8945 4.14844C53.793 4.14844 55.2891 4.73828 56.3828 5.91797C57.4766 7.08984 58.0234 8.6875 58.0234 10.7109V10.8516C58.0234 12.8281 57.4727 14.3984 56.3711 15.5625C55.2773 16.7188 53.793 17.2969 51.918 17.2969C50.1133 17.2969 48.6641 16.7578 47.5703 15.6797C46.4766 14.5938 45.8867 13.125 45.8008 11.2734L45.7891 10.6055ZM49.7383 10.8516C49.7383 12.0234 49.9219 12.8828 50.2891 13.4297C50.6562 13.9766 51.1992 14.25 51.918 14.25C53.3242 14.25 54.043 13.168 54.0742 11.0039V10.6055C54.0742 8.33203 53.3477 7.19531 51.8945 7.19531C50.5742 7.19531 49.8594 8.17578 49.75 10.1367L49.7383 10.8516Z" fill="white"/>
<path d="M74.2773 17.0625H70.1641V3.17578H64.0352V17.0625H59.9219V0H74.2773V17.0625Z" fill="white"/>
<path d="M81.7305 11.5312L83.8398 4.38281H88.0703L82.9023 19.1836L82.6797 19.7227C81.9453 21.3633 80.6484 22.1836 78.7891 22.1836C78.2734 22.1836 77.7305 22.1055 77.1602 21.9492V19.125H77.6758C78.2305 19.125 78.6523 19.043 78.9414 18.8789C79.2383 18.7227 79.457 18.4375 79.5977 18.0234L79.9141 17.1797L75.5078 4.38281H79.7266L81.7305 11.5312Z" fill="white"/>
<path d="M99.9414 4.38281V17.0625H95.9922V7.42969H93.625L93.4141 11.3086C93.2656 13.2305 92.832 14.668 92.1133 15.6211C91.3945 16.5742 90.3281 17.0547 88.9141 17.0625H87.6719L87.625 14.0391L88.0352 13.9922C88.5586 13.9297 88.9453 13.582 89.1953 12.9492C89.4531 12.3086 89.6172 11.3438 89.6875 10.0547L89.9336 4.38281H99.9414Z" fill="white"/>
<path d="M106.328 7.86328H108.355C109.527 7.86328 110.559 8.05469 111.449 8.4375C112.34 8.82031 113.02 9.36328 113.488 10.0664C113.957 10.7695 114.191 11.5859 114.191 12.5156C114.191 13.8828 113.66 14.9844 112.598 15.8203C111.543 16.6484 110.102 17.0625 108.273 17.0625H102.355V4.38281H106.328V7.86328ZM106.328 10.8984V14.0391H108.332C108.934 14.0391 109.402 13.9023 109.738 13.6289C110.082 13.3477 110.254 12.9688 110.254 12.4922C110.254 12.0234 110.102 11.6406 109.797 11.3438C109.492 11.0469 109.004 10.8984 108.332 10.8984H106.328Z" fill="white"/>
<path d="M121.023 14.25C121.578 14.25 122.008 14.1016 122.312 13.8047C122.617 13.5 122.766 13.0781 122.758 12.5391H126.461C126.461 13.9297 125.961 15.0703 124.961 15.9609C123.969 16.8516 122.688 17.2969 121.117 17.2969C119.273 17.2969 117.82 16.7188 116.758 15.5625C115.695 14.4062 115.164 12.8047 115.164 10.7578V10.5938C115.164 9.3125 115.398 8.18359 115.867 7.20703C116.344 6.22266 117.027 5.46875 117.918 4.94531C118.809 4.41406 119.863 4.14844 121.082 4.14844C122.73 4.14844 124.039 4.60547 125.008 5.51953C125.977 6.43359 126.461 7.67188 126.461 9.23438H122.758C122.758 8.57812 122.598 8.07422 122.277 7.72266C121.957 7.37109 121.527 7.19531 120.988 7.19531C119.965 7.19531 119.367 7.84766 119.195 9.15234C119.141 9.56641 119.113 10.1367 119.113 10.8633C119.113 12.1367 119.266 13.0195 119.57 13.5117C119.875 14.0039 120.359 14.25 121.023 14.25Z" fill="white"/>
</g>
<defs>
<filter id="filter0_d" x="0" y="0" width="130.461" height="30.1836" filterUnits="userSpaceOnUse" color-interpolation-filters="sRGB">
<feFlood flood-opacity="0" result="BackgroundImageFix"/>
<feColorMatrix in="SourceAlpha" type="matrix" values="0 0 0 0 0 0 0 0 0 0 0 0 0 0 0 0 0 0 127 0"/>
<feOffset dy="4"/>
<feGaussianBlur stdDeviation="2"/>
<feColorMatrix type="matrix" values="0 0 0 0 0 0 0 0 0 0 0 0 0 0 0 0 0 0 0.25 0"/>
<feBlend mode="normal" in2="BackgroundImageFix" result="effect1_dropShadow"/>
<feBlend mode="normal" in="SourceGraphic" in2="effect1_dropShadow" result="shape"/>
</filter>
</defs>
</svg>
